<svg width="15" height="15" viewBox="0 0 17 17" fill="none" xmlns="http://www.w3.org/2000/svg">
<path d="M8.49219 16.6094C7.36198 16.6094 6.29948 16.3932 5.30469 15.9609C4.3099 15.5339 3.43229 14.9401 2.67188 14.1797C1.91146 13.4245 1.3151 12.5495 0.882812 11.5547C0.455729 10.5599 0.242188 9.49479 0.242188 8.35938C0.242188 7.22917 0.455729 6.16667 0.882812 5.17188C1.3151 4.17708 1.90885 3.29948 2.66406 2.53906C3.42448 1.77865 4.30208 1.1849 5.29688 0.757812C6.29688 0.325521 7.36198 0.109375 8.49219 0.109375C9.6224 0.109375 10.6849 0.325521 11.6797 0.757812C12.6797 1.1849 13.5573 1.77865 14.3125 2.53906C15.0729 3.29948 15.6693 4.17708 16.1016 5.17188C16.5339 6.16667 16.75 7.22917 16.75 8.35938C16.75 9.49479 16.5339 10.5599 16.1016 11.5547C15.6693 12.5495 15.0729 13.4245 14.3125 14.1797C13.5573 14.9401 12.6823 15.5339 11.6875 15.9609C10.6927 16.3932 9.6276 16.6094 8.49219 16.6094ZM8.49219 14.5547C9.35156 14.5547 10.1562 14.3932 10.9062 14.0703C11.6562 13.7526 12.3151 13.3125 12.8828 12.75C13.4505 12.1823 13.8932 11.5234 14.2109 10.7734C14.5339 10.0234 14.6953 9.21875 14.6953 8.35938C14.6953 7.5 14.5339 6.69792 14.2109 5.95312C13.888 5.20312 13.4427 4.54427 12.875 3.97656C12.3125 3.40885 11.6562 2.96615 10.9062 2.64844C10.1562 2.32552 9.35156 2.16406 8.49219 2.16406C7.63281 2.16406 6.82812 2.32552 6.07812 2.64844C5.33333 2.96615 4.67708 3.40885 4.10938 3.97656C3.54167 4.54427 3.09896 5.20312 2.78125 5.95312C2.46354 6.69792 2.30469 7.5 2.30469 8.35938C2.30469 9.21875 2.46354 10.0234 2.78125 10.7734C3.09896 11.5234 3.54167 12.1823 4.10938 12.75C4.67708 13.3125 5.33594 13.7526 6.08594 14.0703C6.83594 14.3932 7.63802 14.5547 8.49219 14.5547ZM7.67188 12.0781C7.51042 12.0781 7.36198 12.0417 7.22656 11.9688C7.09635 11.8906 6.97135 11.7839 6.85156 11.6484L5.10938 9.55469C4.94792 9.35677 4.86719 9.15625 4.86719 8.95312C4.86719 8.72917 4.94792 8.53646 5.10938 8.375C5.27083 8.21354 5.46354 8.13281 5.6875 8.13281C5.82292 8.13281 5.94271 8.16146 6.04688 8.21875C6.15625 8.27083 6.26042 8.35938 6.35938 8.48438L7.65625 10.0859L10.4609 5.57031C10.6536 5.25781 10.8958 5.10156 11.1875 5.10156C11.4062 5.10156 11.6016 5.17448 11.7734 5.32031C11.9453 5.46094 12.0312 5.64583 12.0312 5.875C12.0312 5.96875 12.013 6.0651 11.9766 6.16406C11.9401 6.26302 11.8906 6.35938 11.8281 6.45312L8.46875 11.6328C8.27604 11.9297 8.01042 12.0781 7.67188 12.0781Z" fill="white"/>
</svg>
