<svg width="22" height="20" viewBox="0 0 62 46" fill="none" xmlns="http://www.w3.org/2000/svg">
<path d="M4.985 0.899287C5.28386 0.278742 5.94135 -0.077308 6.60881 0.0142478L30.9958 3.12714L55.3827 0.0142478C56.0502 -0.0671351 56.7077 0.288915 57.0065 0.899287L61.1607 9.38346C62.0572 11.2044 61.1009 13.4119 59.1882 13.9714L42.9103 18.7221C41.5256 19.1291 40.0412 18.5289 39.3041 17.2674L30.9958 3.12714L22.6875 17.2674C21.9503 18.5289 20.4659 19.1291 19.0812 18.7221L2.81329 13.9714C0.890625 13.4119 -0.0557637 11.2044 0.840815 9.38346L4.985 0.899287ZM31.1053 9.63778L36.5745 18.9358C38.0588 21.4586 41.0175 22.659 43.7969 21.8452L56.4985 18.1423V35.131C56.4985 37.369 55.0042 39.3222 52.8723 39.8715L32.5399 45.0597C31.5237 45.3242 30.4578 45.3242 29.4517 45.0597L9.11923 39.8715C6.98736 39.312 5.49306 37.3588 5.49306 35.1208V18.1321L18.2046 21.8452C20.974 22.659 23.9427 21.4586 25.427 18.9358L30.8862 9.63778H31.1053Z" fill="#000000"/>
</svg>
