<svg width="17" height="17" viewBox="0 0 17 17" fill="none" xmlns="http://www.w3.org/2000/svg">
<path d="M16.0525 1.42048C16.0525 1.06609 15.9117 0.726216 15.6611 0.475625C15.4105 0.225033 15.0707 0.0842525 14.7163 0.0842525L4.02645 0.0174408C3.67206 0.0174408 3.33218 0.158222 3.08159 0.408814C2.831 0.659405 2.69022 0.99928 2.69022 1.35367C2.69022 1.70806 2.831 2.04794 3.08159 2.29853C3.33218 2.54912 3.67206 2.6899 4.02645 2.6899H11.4559L0.405264 13.7672C0.280021 13.8915 0.180614 14.0393 0.112775 14.2021C0.0449368 14.3649 0.0100098 14.5396 0.0100098 14.716C0.0100098 14.8924 0.0449368 15.067 0.112775 15.2298C0.180614 15.3927 0.280021 15.5405 0.405264 15.6647C0.529484 15.7899 0.677272 15.8893 0.840104 15.9572C1.00294 16.025 1.17759 16.0599 1.35399 16.0599C1.53039 16.0599 1.70504 16.025 1.86787 15.9572C2.0307 15.8893 2.17849 15.7899 2.30271 15.6647L13.3801 4.58735V12.0435C13.3801 12.3979 13.5208 12.7378 13.7714 12.9884C14.022 13.239 14.3619 13.3797 14.7163 13.3797C15.0707 13.3797 15.4105 13.239 15.6611 12.9884C15.9117 12.7378 16.0525 12.3979 16.0525 12.0435V1.42048Z" fill="black"/>
</svg>
