<svg width="43" height="43" viewBox="0 0 43 43" fill="none" xmlns="http://www.w3.org/2000/svg">
<g id="Avatar">
<path id="Vector" d="M0 21.5C0 9.632 9.632 0 21.5 0C33.368 0 43 9.632 43 21.5C43 33.368 33.368 43 21.5 43C9.632 43 0 33.368 0 21.5Z" fill="#B3B3B3"/>
<path id="Vector_2" d="M20.9625 6.71875C24.5315 6.71875 27.4125 9.59975 27.4125 13.1688C27.4125 16.7378 24.5315 19.6188 20.9625 19.6188C17.3935 19.6188 14.5125 16.7378 14.5125 13.1688C14.5125 9.59975 17.3935 6.71875 20.9625 6.71875ZM20.9625 37.2488C15.5875 37.2488 10.836 34.4967 8.0625 30.3258C8.127 26.0473 16.6625 23.7038 20.9625 23.7038C25.241 23.7038 33.798 26.0473 33.8625 30.3258C31.089 34.4967 26.3375 37.2488 20.9625 37.2488Z" fill="white"/>
</g>
</svg>
