<svg width="29" height="29" viewBox="0 0 29 29" fill="none" xmlns="http://www.w3.org/2000/svg">
<path d="M13.6752 5.40208C13.8014 5.5284 13.9014 5.67839 13.9695 5.84344C14.0375 6.00849 14.0724 6.18536 14.072 6.3639C14.0716 6.54245 14.0359 6.71915 13.9671 6.88389C13.8982 7.04863 13.7975 7.19816 13.6708 7.3239L7.83663 13.1314L24.4547 13.1694C24.8144 13.1703 25.1592 13.314 25.413 13.569C25.6668 13.824 25.8089 14.1693 25.8081 14.5291C25.8073 14.8889 25.6636 15.2336 25.4086 15.4874C25.1536 15.7413 24.8082 15.8834 24.4484 15.8826L7.83042 15.8446L13.6379 21.681C13.8922 21.9364 14.0346 22.2824 14.0337 22.6428C14.0329 23.0032 13.889 23.3485 13.6335 23.6028C13.3781 23.857 13.0321 23.9994 12.6717 23.9986C12.3113 23.9978 11.966 23.8538 11.7117 23.5984L3.5909 15.4403C3.46472 15.314 3.36471 15.164 3.29662 14.999C3.22853 14.8339 3.19369 14.657 3.1941 14.4785C3.19451 14.3 3.23016 14.1232 3.299 13.9585C3.36785 13.7938 3.46854 13.6442 3.59529 13.5185L11.7534 5.39769C11.8797 5.27151 12.0297 5.1715 12.1947 5.10341C12.3598 5.03532 12.5366 5.00048 12.7152 5.00089C12.8937 5.00129 13.0704 5.03694 13.2352 5.10579C13.3999 5.17464 13.5494 5.27533 13.6752 5.40208Z" fill="white"/>
</svg>
