<svg width="22" height="24" viewBox="0 0 22 24" fill="none" xmlns="http://www.w3.org/2000/svg">
<path id="Vector" d="M21.4222 6.22757C21.0443 5.57782 20.4973 5.04262 19.8396 4.67884L13.0568 0.937014C12.4262 0.597631 11.7212 0.419983 11.005 0.419983C10.2889 0.419983 9.58388 0.597631 8.95324 0.937014L2.17048 4.67884C1.51271 5.04262 0.965782 5.57782 0.587839 6.22757C0.203477 6.87813 0.000489103 7.61981 0 8.37544V15.6217C0.00528086 16.3742 0.208665 17.112 0.589688 17.761C0.97071 18.4099 1.51593 18.947 2.17048 19.3183L8.95324 23.0488C9.58097 23.3972 10.2871 23.58 11.005 23.58C11.723 23.58 12.4291 23.3972 13.0568 23.0488L19.8396 19.307C20.4958 18.9415 21.0422 18.407 21.4219 17.7589C21.8016 17.1108 22.0008 16.3728 21.9987 15.6217V8.43196C22.0179 7.65754 21.8181 6.89345 21.4222 6.22757ZM20.2917 15.6217C20.2963 16.0713 20.1788 16.5137 19.9519 16.9019C19.725 17.2901 19.397 17.6095 19.003 17.8261L12.2203 21.5679C12.1022 21.6343 11.977 21.6874 11.8472 21.7262V12.479L20.0996 7.51629C20.2036 7.78986 20.2533 8.08152 20.2465 8.37544L20.2917 15.6217Z" fill="black"/>
</svg>
