<svg width="18" height="24" viewBox="0 0 18 24" fill="none" xmlns="http://www.w3.org/2000/svg">
<path d="M1.73375 7.5H16.265L15.3963 21.4062C15.3565 22.041 15.0763 22.6367 14.6128 23.0721C14.1493 23.5076 13.5372 23.75 12.9013 23.75H5.09875C4.46278 23.75 3.85072 23.5076 3.38719 23.0721C2.92366 22.6367 2.6435 22.041 2.60375 21.4062L1.73375 7.5ZM17.75 3.75V6.25H0.25V3.75H4V2.5C4 1.83696 4.26339 1.20107 4.73223 0.732233C5.20107 0.263392 5.83696 0 6.5 0H11.5C12.163 0 12.7989 0.263392 13.2678 0.732233C13.7366 1.20107 14 1.83696 14 2.5V3.75H17.75ZM6.5 3.75H11.5V2.5H6.5V3.75Z" fill="#B8B8B8"/>
</svg>
