<svg width="15" height="15" viewBox="0 0 17 17" fill="none" xmlns="http://www.w3.org/2000/svg">
<path d="M8.49219 16.6094C7.36198 16.6094 6.29948 16.3932 5.30469 15.9609C4.3099 15.5339 3.43229 14.9401 2.67188 14.1797C1.91146 13.4245 1.3151 12.5495 0.882812 11.5547C0.455729 10.5599 0.242188 9.49479 0.242188 8.35938C0.242188 7.22917 0.455729 6.16667 0.882812 5.17188C1.3151 4.17708 1.90885 3.29948 2.66406 2.53906C3.42448 1.77865 4.30208 1.1849 5.29688 0.757812C6.29688 0.325521 7.36198 0.109375 8.49219 0.109375C9.6224 0.109375 10.6849 0.325521 11.6797 0.757812C12.6797 1.1849 13.5573 1.77865 14.3125 2.53906C15.0729 3.29948 15.6693 4.17708 16.1016 5.17188C16.5339 6.16667 16.75 7.22917 16.75 8.35938C16.75 9.49479 16.5339 10.5599 16.1016 11.5547C15.6693 12.5495 15.0729 13.4245 14.3125 14.1797C13.5573 14.9401 12.6823 15.5339 11.6875 15.9609C10.6927 16.3932 9.6276 16.6094 8.49219 16.6094ZM8.49219 14.5547C9.35156 14.5547 10.1562 14.3932 10.9062 14.0703C11.6562 13.7526 12.3151 13.3125 12.8828 12.75C13.4505 12.1823 13.8932 11.5234 14.2109 10.7734C14.5339 10.0234 14.6953 9.21875 14.6953 8.35938C14.6953 7.5 14.5339 6.69792 14.2109 5.95312C13.888 5.20312 13.4427 4.54427 12.875 3.97656C12.3125 3.40885 11.6562 2.96615 10.9062 2.64844C10.1562 2.32552 9.35156 2.16406 8.49219 2.16406C7.63281 2.16406 6.82812 2.32552 6.07812 2.64844C5.33333 2.96615 4.67708 3.40885 4.10938 3.97656C3.54167 4.54427 3.09896 5.20312 2.78125 5.95312C2.46354 6.69792 2.30469 7.5 2.30469 8.35938C2.30469 9.21875 2.46354 10.0234 2.78125 10.7734C3.09896 11.5234 3.54167 12.1823 4.10938 12.75C4.67708 13.3125 5.33594 13.7526 6.08594 14.0703C6.83594 14.3932 7.63802 14.5547 8.49219 14.5547ZM6.09375 11.6016C5.85938 11.6016 5.65885 11.5208 5.49219 11.3594C5.33073 11.1927 5.25 10.9896 5.25 10.75C5.25 10.5312 5.33594 10.3385 5.50781 10.1719L7.30469 8.36719L5.50781 6.57031C5.33594 6.40365 5.25 6.20833 5.25 5.98438C5.25 5.75 5.33073 5.55208 5.49219 5.39062C5.65885 5.22917 5.85938 5.14844 6.09375 5.14844C6.34375 5.14844 6.54948 5.23177 6.71094 5.39844L8.49219 7.17969L10.2969 5.39062C10.4635 5.22396 10.6667 5.14062 10.9062 5.14062C11.1458 5.14062 11.3464 5.22135 11.5078 5.38281C11.6693 5.54427 11.75 5.74479 11.75 5.98438C11.75 6.20312 11.6641 6.39583 11.4922 6.5625L9.70312 8.36719L11.4922 10.1641C11.6589 10.3359 11.7422 10.5312 11.7422 10.75C11.7422 10.9896 11.6615 11.1927 11.5 11.3594C11.3385 11.5208 11.1406 11.6016 10.9062 11.6016C10.6562 11.6016 10.4479 11.5182 10.2812 11.3516L8.49219 9.57031L6.71875 11.3516C6.55208 11.5182 6.34375 11.6016 6.09375 11.6016Z" fill="white"/>
</svg>
