<svg width="48" height="41" viewBox="0 0 48 41" fill="none" xmlns="http://www.w3.org/2000/svg">
<path fill-rule="evenodd" clip-rule="evenodd" d="M3.6 0C2.64522 0 1.72955 0.379285 1.05442 1.05442C0.379285 1.72955 0 2.64522 0 3.6L0 30C0 30.9548 0.379285 31.8705 1.05442 32.5456C1.72955 33.2207 2.64522 33.6 3.6 33.6H4.8C4.8 35.5096 5.55857 37.3409 6.90883 38.6912C8.25909 40.0414 10.0904 40.8 12 40.8C13.9096 40.8 15.7409 40.0414 17.0912 38.6912C18.4414 37.3409 19.2 35.5096 19.2 33.6H28.8C28.8 35.5096 29.5586 37.3409 30.9088 38.6912C32.2591 40.0414 34.0904 40.8 36 40.8C37.9096 40.8 39.7409 40.0414 41.0912 38.6912C42.4414 37.3409 43.2 35.5096 43.2 33.6H44.4C45.3548 33.6 46.2705 33.2207 46.9456 32.5456C47.6207 31.8705 48 30.9548 48 30V21.9336C47.9999 21.2809 47.8224 20.6404 47.4864 20.0808L40.8072 8.9472C40.4873 8.41432 40.035 7.97333 39.4941 7.66715C38.9532 7.36097 38.3423 7.20004 37.7208 7.2H31.2V3.6C31.2 2.64522 30.8207 1.72955 30.1456 1.05442C29.4705 0.379285 28.5548 0 27.6 0H3.6ZM36 36C35.3635 36 34.753 35.7471 34.3029 35.2971C33.8529 34.847 33.6 34.2365 33.6 33.6C33.6 32.9635 33.8529 32.353 34.3029 31.9029C34.753 31.4529 35.3635 31.2 36 31.2C36.6365 31.2 37.247 31.4529 37.6971 31.9029C38.1471 32.353 38.4 32.9635 38.4 33.6C38.4 34.2365 38.1471 34.847 37.6971 35.2971C37.247 35.7471 36.6365 36 36 36ZM9.6 33.6C9.6 34.2365 9.85286 34.847 10.3029 35.2971C10.753 35.7471 11.3635 36 12 36C12.6365 36 13.247 35.7471 13.6971 35.2971C14.1471 34.847 14.4 34.2365 14.4 33.6C14.4 32.9635 14.1471 32.353 13.6971 31.9029C13.247 31.4529 12.6365 31.2 12 31.2C11.3635 31.2 10.753 31.4529 10.3029 31.9029C9.85286 32.353 9.6 32.9635 9.6 33.6ZM41.3616 19.2H31.2V12H37.0416L41.3616 19.2Z" fill="#ABBC77"/>
</svg>
