<svg width="21" height="32" viewBox="0 0 21 32" fill="none" xmlns="http://www.w3.org/2000/svg">
<path d="M20.1302 16.056L12.7072 11.687L16.4493 2.56669C16.5799 2.29581 16.6407 1.99572 16.626 1.69449C16.6112 1.39326 16.5215 1.10075 16.3652 0.844314C16.2089 0.587883 15.991 0.375919 15.7321 0.228257C15.4731 0.0805944 15.1815 0.00206093 14.8845 5.04672e-06C14.4899 -0.000947761 14.1064 0.133041 13.7958 0.380387L13.6733 0.487036L0.546087 13.1072C0.348748 13.2975 0.19773 13.5318 0.104984 13.7917C0.0122381 14.0515 -0.0196907 14.3297 0.0117233 14.6042C0.0431372 14.8787 0.137032 15.1421 0.285978 15.3734C0.434925 15.6047 0.634836 15.7976 0.869892 15.9369L8.29465 20.3095L4.50876 29.5347C4.3526 29.911 4.32893 30.3304 4.44172 30.7224C4.55451 31.1143 4.79687 31.4548 5.12798 31.6865C5.4591 31.9182 5.85872 32.0269 6.25954 31.9943C6.66035 31.9618 7.03787 31.7899 7.32849 31.5077L20.4557 18.884C20.6526 18.6935 20.8032 18.4592 20.8956 18.1995C20.9881 17.9398 21.0197 17.6618 20.9881 17.3875C20.9566 17.1132 20.8626 16.8501 20.7137 16.619C20.5648 16.388 20.365 16.1952 20.1302 16.056Z" fill="#224030"/>
</svg>
