<svg width="30" height="31" viewBox="0 0 30 31" fill="none" xmlns="http://www.w3.org/2000/svg">
<path d="M14.9929 31C12.9389 31 11.008 30.5939 9.20019 29.7817C7.39233 28.9793 5.79744 27.8638 4.41552 26.4351C3.0336 25.0163 1.94983 23.3723 1.16422 21.5033C0.388074 19.6343 0 17.6332 0 15.5C0 13.3766 0.388074 11.3804 1.16422 9.51136C1.94983 7.64236 3.02887 5.99353 4.40133 4.56487C5.78325 3.13621 7.37813 2.02068 9.18599 1.21828C11.0033 0.406092 12.9389 0 14.9929 0C17.0469 0 18.9778 0.406092 20.7856 1.21828C22.6029 2.02068 24.1978 3.13621 25.5703 4.56487C26.9522 5.99353 28.036 7.64236 28.8216 9.51136C29.6072 11.3804 30 13.3766 30 15.5C30 17.6332 29.6072 19.6343 28.8216 21.5033C28.036 23.3723 26.9522 25.0163 25.5703 26.4351C24.1978 27.8638 22.6077 28.9793 20.7998 29.7817C18.992 30.5939 17.0563 31 14.9929 31ZM14.9929 27.1397C16.5547 27.1397 18.017 26.8363 19.38 26.2296C20.743 25.6327 21.9404 24.8059 22.9721 23.7491C24.0038 22.6824 24.8083 21.4446 25.3857 20.0355C25.9725 18.6264 26.266 17.1146 26.266 15.5C26.266 13.8854 25.9725 12.3785 25.3857 10.9792C24.7989 9.57008 23.9896 8.33223 22.9579 7.26562C21.9356 6.19902 20.743 5.36727 19.38 4.77036C18.017 4.16367 16.5547 3.86032 14.9929 3.86032C13.4311 3.86032 11.9688 4.16367 10.6058 4.77036C9.25225 5.36727 8.05963 6.19902 7.02792 7.26562C5.99621 8.33223 5.19167 9.57008 4.61429 10.9792C4.03691 12.3785 3.74823 13.8854 3.74823 15.5C3.74823 17.1146 4.03691 18.6264 4.61429 20.0355C5.19167 21.4446 5.99621 22.6824 7.02792 23.7491C8.05963 24.8059 9.25698 25.6327 10.62 26.2296C11.983 26.8363 13.4406 27.1397 14.9929 27.1397ZM22.3758 15.4853C22.3758 16.0039 22.1817 16.4541 21.7937 16.8357L16.9522 21.6354C16.6588 21.9388 16.3086 22.0904 15.9016 22.0904C15.5135 22.0904 15.1917 21.9534 14.9361 21.6794C14.69 21.4055 14.567 21.0581 14.567 20.6373C14.567 20.1872 14.7184 19.8349 15.0213 19.5805L16.6398 18.0687L18.0596 16.9678L15.2627 17.1439H9.08661C8.65121 17.1439 8.29153 16.9874 8.00757 16.6742C7.72362 16.3513 7.58164 15.955 7.58164 15.4853C7.58164 15.0254 7.72362 14.6389 8.00757 14.3258C8.29153 14.0028 8.65121 13.8414 9.08661 13.8414H15.2627L18.0454 14.0028L16.6115 12.9167L15.0213 11.4048C14.7184 11.1211 14.567 10.7688 14.567 10.348C14.567 9.92724 14.69 9.58475 14.9361 9.32055C15.1917 9.04656 15.5135 8.90956 15.9016 8.90956C16.3086 8.90956 16.6588 9.05634 16.9522 9.34991L21.7937 14.1496C22.1817 14.5312 22.3758 14.9765 22.3758 15.4853Z" fill="#ABBC77"/>
</svg>
