<svg width="33" height="29" viewBox="0 0 33 29" fill="none" xmlns="http://www.w3.org/2000/svg">
<path d="M30.8333 0H2.05556C1.51039 0 0.98755 0.216567 0.602058 0.602058C0.216567 0.98755 0 1.51039 0 2.05556V26.7222C0 27.2674 0.216567 27.7902 0.602058 28.1757C0.98755 28.5612 1.51039 28.7778 2.05556 28.7778H30.8333C31.3785 28.7778 31.9013 28.5612 32.2868 28.1757C32.6723 27.7902 32.8889 27.2674 32.8889 26.7222V2.05556C32.8889 1.51039 32.6723 0.98755 32.2868 0.602058C31.9013 0.216567 31.3785 0 30.8333 0ZM7.11222 4.11111C7.72205 4.11111 8.31818 4.29195 8.82523 4.63075C9.33228 4.96955 9.72748 5.4511 9.96085 6.0145C10.1942 6.57791 10.2553 7.19787 10.1363 7.79597C10.0173 8.39408 9.72368 8.94348 9.29247 9.37469C8.86126 9.8059 8.31186 10.0996 7.71375 10.2185C7.11564 10.3375 6.49569 10.2764 5.93228 10.0431C5.36888 9.8097 4.88733 9.4145 4.54852 8.90745C4.20972 8.4004 4.02889 7.80427 4.02889 7.19444C4.02889 6.37669 4.35374 5.59244 4.93198 5.0142C5.51021 4.43596 6.29447 4.11111 7.11222 4.11111ZM4.11111 23.6389V19.425L10.2778 13.1761C10.4703 12.9847 10.7308 12.8772 11.0024 12.8772C11.2739 12.8772 11.5344 12.9847 11.7269 13.1761L14.3889 15.7764L6.49556 23.6389H4.11111ZM28.7778 23.6389H9.40417L15.8072 17.2358L21.3572 11.6858C21.5498 11.4944 21.8103 11.387 22.0818 11.387C22.3533 11.387 22.6138 11.4944 22.8064 11.6858L28.7778 17.6572V23.6389Z" fill="#224030"/>
</svg>
