<svg width="19" height="18" viewBox="0 0 19 18" fill="none" xmlns="http://www.w3.org/2000/svg">
<path d="M9.49158 17.8137C8.27286 17.8137 7.12715 17.5806 6.05446 17.1145C4.98176 16.654 4.03543 16.0137 3.21547 15.1938C2.3955 14.3794 1.75245 13.4359 1.2863 12.3632C0.825771 11.2905 0.595507 10.142 0.595507 8.91765C0.595507 7.69893 0.825771 6.55323 1.2863 5.48053C1.75245 4.40784 2.39269 3.46151 3.20704 2.64154C4.02701 1.82158 4.97334 1.18133 6.04603 0.720799C7.12434 0.254654 8.27286 0.0215818 9.49158 0.0215818C10.7103 0.0215818 11.856 0.254654 12.9287 0.720799C14.007 1.18133 14.9533 1.82158 15.7677 2.64154C16.5877 3.46151 17.2307 4.40784 17.6969 5.48053C18.163 6.55323 18.3961 7.69893 18.3961 8.91765C18.3961 10.142 18.163 11.2905 17.6969 12.3632C17.2307 13.4359 16.5877 14.3794 15.7677 15.1938C14.9533 16.0137 14.0098 16.654 12.9371 17.1145C11.8644 17.5806 10.7159 17.8137 9.49158 17.8137ZM9.49158 15.5981C10.4182 15.5981 11.286 15.424 12.0947 15.0758C12.9034 14.7332 13.6139 14.2587 14.226 13.6521C14.8382 13.0399 15.3156 12.3295 15.6582 11.5208C16.0064 10.712 16.1805 9.84432 16.1805 8.91765C16.1805 7.99098 16.0064 7.12608 15.6582 6.32296C15.31 5.51423 14.8298 4.80378 14.2176 4.19161C13.6111 3.57945 12.9034 3.10207 12.0947 2.75948C11.286 2.41128 10.4182 2.23717 9.49158 2.23717C8.5649 2.23717 7.6972 2.41128 6.88846 2.75948C6.08535 3.10207 5.37771 3.57945 4.76554 4.19161C4.15337 4.80378 3.676 5.51423 3.33341 6.32296C2.99082 7.12608 2.81952 7.99098 2.81952 8.91765C2.81952 9.84432 2.99082 10.712 3.33341 11.5208C3.676 12.3295 4.15337 13.0399 4.76554 13.6521C5.37771 14.2587 6.08816 14.7332 6.89689 15.0758C7.70562 15.424 8.57052 15.5981 9.49158 15.5981ZM13.8722 8.90923C13.8722 9.20688 13.7571 9.46523 13.5268 9.68426L10.6541 12.439C10.48 12.6131 10.2722 12.7002 10.0307 12.7002C9.80047 12.7002 9.60952 12.6215 9.45788 12.4643C9.31186 12.307 9.23885 12.1077 9.23885 11.8662C9.23885 11.6078 9.32871 11.4056 9.50842 11.2596L10.4688 10.3919L11.3112 9.76008L9.65164 9.86117H5.98706C5.72872 9.86117 5.5153 9.77131 5.34682 9.59159C5.17833 9.40626 5.09409 9.1788 5.09409 8.90923C5.09409 8.64526 5.17833 8.42342 5.34682 8.24371C5.5153 8.05837 5.72872 7.9657 5.98706 7.9657H9.65164L11.3028 8.05837L10.4519 7.43497L9.50842 6.56727C9.32871 6.4044 9.23885 6.20222 9.23885 5.96072C9.23885 5.71922 9.31186 5.52265 9.45788 5.37102C9.60952 5.21376 9.80047 5.13514 10.0307 5.13514C10.2722 5.13514 10.48 5.21938 10.6541 5.38787L13.5268 8.14261C13.7571 8.36165 13.8722 8.61718 13.8722 8.90923Z" fill="#000000"/>
</svg>
