<svg width="54" height="55" viewBox="0 0 54 55" fill="none" xmlns="http://www.w3.org/2000/svg">
<path fill-rule="evenodd" clip-rule="evenodd" d="M30.3891 9.31012C34.0007 5.18048 53.3146 0 53.3146 0C53.3146 0 50.0316 20.6579 47.1423 23.9617C45.0987 26.2986 38.8122 25.0286 35.3079 24.0853C33.7696 26.5213 32.4689 29.2185 31.789 32.0323C31.5547 33.0026 30.5148 33.4845 29.4666 33.1084C28.4184 32.7323 27.7586 31.6409 27.993 30.6708C28.7783 27.4203 30.2598 24.3785 31.962 21.6982C30.4094 18.6948 27.6948 12.3909 30.3891 9.31012ZM8.61985 35.2629H0V54.6576H8.61985V51.2963C10.0145 51.2483 11.4668 51.2108 12.0848 51.2351C15.0404 51.352 17.2476 52.0403 19.4793 52.7364C21.5612 53.3858 23.6646 54.0419 26.4169 54.2466C27.1086 54.2979 27.7816 54.3643 28.4341 54.4287C30.7909 54.6611 32.8799 54.867 34.6065 54.2466C36.8115 53.454 49.4111 47.4315 50.9862 45.8466C52.561 44.2617 51.7736 39.9824 46.8913 40.7749C44.4821 41.1658 41.6896 42.2901 39.1569 43.3096C36.5567 44.3564 34.2304 45.2928 32.8741 45.2126C30.1967 45.0541 23.1094 43.7862 23.1094 43.7862L31.2468 43.8828C31.2468 43.8828 32.3964 43.9427 33.9766 42.8353C35.5567 41.7279 36.969 38.556 34.6065 38.556C32.2441 38.556 29.7242 37.7636 29.7242 37.7636L19.6445 35.5447C19.6445 35.5447 16.1795 34.9107 14.7621 35.5447C13.8627 35.9469 10.7647 37.0509 8.61985 37.8043V35.2629ZM6.50672 7.91159C6.50672 7.91159 20.8413 11.7969 23.5216 14.8942C25.3851 17.0475 23.7623 21.3001 22.6 23.6923C23.9987 25.9951 25.2246 28.5071 26.0189 31.1252C26.3028 32.0605 25.782 33.0523 24.8558 33.3404C23.9294 33.6285 22.9486 33.1036 22.6647 32.1683C22.0175 30.0349 21.0262 27.9448 19.8656 25.977C17.2637 26.6843 12.6035 27.6343 11.0877 25.8828C8.94339 23.4051 6.50672 7.91159 6.50672 7.91159ZM34.4579 21.11C33.6588 20.5534 33.4622 19.4546 34.0189 18.6555C37.1825 14.1133 39.6966 11.172 41.4444 9.34856C42.3185 8.43666 43.0016 7.80386 43.4787 7.39023C43.7174 7.18324 43.9047 7.03108 44.0385 6.92617C44.1055 6.87363 44.1593 6.83308 44.1993 6.80328L44.2494 6.76661L44.2666 6.75409L44.2735 6.74933L44.2763 6.74739C44.277 6.74703 44.2788 6.74545 45.2852 8.17818L44.2788 6.74545C45.0757 6.18583 46.1754 6.37801 46.735 7.17477C47.2929 7.96907 47.1039 9.06399 46.3138 9.62537L46.3017 9.63437C46.2861 9.64583 46.2565 9.66822 46.2132 9.70225C46.1262 9.77013 45.9843 9.88508 45.7888 10.0545C45.3977 10.3934 44.7931 10.9509 43.99 11.7888C42.3836 13.4646 39.9841 16.2608 36.9124 20.671C36.3557 21.4698 35.257 21.6664 34.4579 21.11ZM20.6547 21.2981C21.208 22.1007 21.012 23.2055 20.2166 23.7656C19.4214 24.3256 18.3283 24.129 17.775 23.3263C16.1358 20.9481 14.8651 19.4544 14.0288 18.5728C13.611 18.1322 13.3019 17.845 13.1101 17.677C13.0143 17.5929 12.9477 17.5387 12.9115 17.51C12.8951 17.4971 12.8849 17.4894 12.881 17.4864C12.1005 16.9211 11.9157 15.8241 12.47 15.0277C13.0277 14.2265 14.1219 14.0329 14.9141 14.5952L13.9088 16.0393C14.9141 14.5952 14.9134 14.5946 14.9141 14.5952L14.9166 14.5969L14.9192 14.5989L14.925 14.6029L14.9386 14.6128L14.9741 14.6391C15.0014 14.6595 15.0358 14.686 15.0774 14.7189C15.1604 14.7845 15.2719 14.8762 15.4104 14.9977C15.688 15.2408 16.0748 15.6035 16.5632 16.1185C17.5398 17.148 18.9242 18.7874 20.6547 21.2981Z" fill="#ABBC77"/>
</svg>
