<svg width="35" height="35" viewBox="0 0 35 35" fill="none" xmlns="http://www.w3.org/2000/svg">
<rect width="35" height="35" rx="17.5" fill="white"/>
<path d="M13.2578 21.733L16.7792 21.7209L24.4651 14.0635C24.7668 13.7601 24.9327 13.3572 24.9327 12.9286C24.9327 12.5 24.7668 12.097 24.4651 11.7936L23.1996 10.5206C22.5963 9.9138 21.5438 9.91701 20.9453 10.5182L13.2578 18.1772V21.733ZM22.0713 11.6556L23.3392 12.9262L22.0649 14.196L20.7993 12.9238L22.0713 11.6556ZM14.8537 18.8466L19.6654 14.0523L20.931 15.3253L16.1201 20.118L14.8537 20.122V18.8466Z" fill="black" stroke="black" stroke-width="0.40257"/>
<path d="M11.6628 24.9335H22.8342C23.7144 24.9335 24.4301 24.2135 24.4301 23.3281V16.3707L22.8342 17.976V23.3281H14.1828C14.162 23.3281 14.1405 23.3362 14.1197 23.3362C14.0934 23.3362 14.0671 23.3289 14.0399 23.3281H11.6628V12.0909H17.1264L18.7223 10.4856H11.6628C10.7827 10.4856 10.0669 11.2056 10.0669 12.0909V23.3281C10.0669 24.2135 10.7827 24.9335 11.6628 24.9335Z" fill="black" stroke="black" stroke-width="0.40257"/>
</svg>
