<svg width="22" height="22" viewBox="0 5 30 25" fill="none" xmlns="http://www.w3.org/2000/svg">
<g id="mdi:account-pending" clip-path="url(#clip0_111_4730)">
<path id="Vector" d="M13.2875 17.625C13.7634 16.5792 14.4407 15.6375 15.2806 14.8535C16.1205 14.0695 17.1067 13.4587 18.1827 13.0559C19.2588 12.6531 20.4036 12.4662 21.5519 12.506C22.7002 12.5457 23.8294 12.8113 24.875 13.2875C25.9208 13.7634 26.8625 14.4407 27.6465 15.2806C28.4305 16.1205 29.0413 17.1067 29.4441 18.1827C29.8469 19.2588 30.0338 20.4036 29.994 21.5519C29.9543 22.7002 29.6887 23.8294 29.2125 24.875C28.5194 26.4051 27.3994 27.7026 25.987 28.6117C24.5746 29.5208 22.9297 30.0029 21.25 30C17.875 30 14.7875 28.05 13.3375 25H1.25V22.5C1.325 21.075 2.3 19.9125 4.175 18.975C6.05 18.0375 8.4 17.55 11.25 17.5C11.9625 17.5 12.6375 17.5625 13.2875 17.625ZM11.25 5C12.65 5.0375 13.825 5.525 14.7625 6.4625C15.7 7.4 16.1625 8.575 16.1625 10C16.1625 11.425 15.7 12.6 14.7625 13.5375C13.825 14.475 12.65 14.9375 11.25 14.9375C9.85 14.9375 8.675 14.475 7.7375 13.5375C6.8 12.6 6.3375 11.425 6.3375 10C6.3375 8.575 6.8 7.4 7.7375 6.4625C8.675 5.525 9.85 5.0375 11.25 5ZM21.25 27.5C22.9076 27.5 24.4973 26.8415 25.6694 25.6694C26.8415 24.4973 27.5 22.9076 27.5 21.25C27.5 19.5924 26.8415 18.0027 25.6694 16.8306C24.4973 15.6585 22.9076 15 21.25 15C19.5924 15 18.0027 15.6585 16.8306 16.8306C15.6585 18.0027 15 19.5924 15 21.25C15 22.9076 15.6585 24.4973 16.8306 25.6694C18.0027 26.8415 19.5924 27.5 21.25 27.5ZM20 17.5H21.875V21.025L24.925 22.7875L23.9875 24.4125L20 22.1125V17.5Z" fill="black"/>
</g>
<defs>
<clipPath id="clip0_111_4730">
<rect width="30" height="30" fill="white"/>
</clipPath>
</defs>
</svg>
