<svg width="60" height="48" viewBox="0 0 60 48" fill="none" xmlns="http://www.w3.org/2000/svg">
<path d="M23.622 31.0039H23.6202C23.6202 29.5109 23.7438 30.1984 15.7723 14.2553C14.1437 10.999 9.48019 10.9926 7.84879 14.2553C-0.190084 30.3349 0.00184547 29.558 0.00184547 31.0039H0C0 35.0806 5.2882 38.3858 11.811 38.3858C18.3338 38.3858 23.622 35.0806 23.622 31.0039ZM11.811 16.2402L18.4547 29.5276H5.16732L11.811 16.2402ZM59.0533 31.0039C59.0533 29.5109 59.1769 30.1984 51.2054 14.2553C49.5768 10.999 44.9133 10.9926 43.2819 14.2553C35.243 30.3349 35.4349 29.558 35.4349 31.0039H35.4331C35.4331 35.0806 40.7213 38.3858 47.2441 38.3858C53.7669 38.3858 59.0551 35.0806 59.0551 31.0039H59.0533ZM40.6004 29.5276L47.2441 16.2402L53.8878 29.5276H40.6004ZM48.7205 41.3386H32.4803V14.1409C34.6497 13.1914 36.2783 11.2362 36.7609 8.85827H48.7205C49.5362 8.85827 50.1968 8.19759 50.1968 7.38189V4.42913C50.1968 3.61343 49.5362 2.95276 48.7205 2.95276H35.3998C34.0527 1.17003 31.935 0 29.5276 0C27.1201 0 25.0025 1.17003 23.6553 2.95276H10.3346C9.51894 2.95276 8.85827 3.61343 8.85827 4.42913V7.38189C8.85827 8.19759 9.51894 8.85827 10.3346 8.85827H22.2942C22.7768 11.2352 24.4045 13.1914 26.5748 14.1409V41.3386H10.3346C9.51894 41.3386 8.85827 41.9993 8.85827 42.8149V45.7677C8.85827 46.5834 9.51894 47.2441 10.3346 47.2441H48.7205C49.5362 47.2441 50.1968 46.5834 50.1968 45.7677V42.8149C50.1968 41.9993 49.5362 41.3386 48.7205 41.3386Z" fill="#ABBC77"/>
</svg>
