<svg width="22" height="22" viewBox="0 0 50 50" fill="none" xmlns="http://www.w3.org/2000/svg">
<path d="M16.15 31.7368L12.625 35.4474L9.2 31.8421C7.05 34.7632 5.6 38.2632 5.15 42.1053H10V47.3684H0V44.7368C0 32 8.6 21.3947 20 18.9474V13.6842L0 5.26316V0H50V5.26316L30 13.6842V18.9474C41.4 21.3947 50 32 50 44.7368V47.3684H40V42.1053H44.85C44.4 38.2632 42.95 34.7632 40.8 31.8421L37.375 35.4474L33.85 31.7368L37.275 28.1053C34.5 25.8421 31.15 24.3158 27.5 23.8421V28.9474H22.5V23.8421C18.85 24.3158 15.5 25.8421 12.725 28.1053L16.15 31.7368ZM25 39.4737C26.3261 39.4737 27.5979 40.0282 28.5355 41.0152C29.4732 42.0023 30 43.341 30 44.7368C30 46.1327 29.4732 47.4714 28.5355 48.4585C27.5979 49.4455 26.3261 50 25 50C24.2 50 23.45 49.8158 22.8 49.4474L13.175 44.7368L22.8 40.0263C23.45 39.6579 24.2 39.4737 25 39.4737Z" fill="#000000"/>
</svg>
