<svg width="19" height="19" viewBox="0 0 19 19" fill="none" xmlns="http://www.w3.org/2000/svg">
<path d="M9.49158 18.3137C8.27286 18.3137 7.12715 18.0806 6.05446 17.6145C4.98176 17.154 4.03543 16.5137 3.21547 15.6938C2.3955 14.8794 1.75245 13.9359 1.2863 12.8632C0.825771 11.7905 0.595507 10.642 0.595507 9.41765C0.595507 8.19893 0.825771 7.05323 1.2863 5.98053C1.75245 4.90784 2.39269 3.96151 3.20704 3.14154C4.02701 2.32158 4.97334 1.68133 6.04603 1.2208C7.12434 0.754654 8.27286 0.521582 9.49158 0.521582C10.7103 0.521582 11.856 0.754654 12.9287 1.2208C14.007 1.68133 14.9533 2.32158 15.7677 3.14154C16.5877 3.96151 17.2307 4.90784 17.6969 5.98053C18.163 7.05323 18.3961 8.19893 18.3961 9.41765C18.3961 10.642 18.163 11.7905 17.6969 12.8632C17.2307 13.9359 16.5877 14.8794 15.7677 15.6938C14.9533 16.5137 14.0098 17.154 12.9371 17.6145C11.8644 18.0806 10.7159 18.3137 9.49158 18.3137ZM9.49158 16.0981C10.4182 16.0981 11.286 15.924 12.0947 15.5758C12.9034 15.2332 13.6139 14.7587 14.226 14.1521C14.8382 13.5399 15.3156 12.8295 15.6582 12.0208C16.0064 11.212 16.1805 10.3443 16.1805 9.41765C16.1805 8.49098 16.0064 7.62608 15.6582 6.82296C15.31 6.01423 14.8298 5.30378 14.2176 4.69161C13.6111 4.07945 12.9034 3.60207 12.0947 3.25948C11.286 2.91128 10.4182 2.73717 9.49158 2.73717C8.5649 2.73717 7.6972 2.91128 6.88846 3.25948C6.08535 3.60207 5.37771 4.07945 4.76554 4.69161C4.15337 5.30378 3.676 6.01423 3.33341 6.82296C2.99082 7.62608 2.81952 8.49098 2.81952 9.41765C2.81952 10.3443 2.99082 11.212 3.33341 12.0208C3.676 12.8295 4.15337 13.5399 4.76554 14.1521C5.37771 14.7587 6.08816 15.2332 6.89689 15.5758C7.70562 15.924 8.57052 16.0981 9.49158 16.0981ZM13.8722 9.40923C13.8722 9.70688 13.7571 9.96523 13.5268 10.1843L10.6541 12.939C10.48 13.1131 10.2722 13.2002 10.0307 13.2002C9.80047 13.2002 9.60952 13.1215 9.45788 12.9643C9.31186 12.807 9.23885 12.6077 9.23885 12.3662C9.23885 12.1078 9.32871 11.9056 9.50842 11.7596L10.4688 10.8919L11.3112 10.2601L9.65164 10.3612H5.98706C5.72872 10.3612 5.5153 10.2713 5.34682 10.0916C5.17833 9.90626 5.09409 9.6788 5.09409 9.40923C5.09409 9.14526 5.17833 8.92342 5.34682 8.74371C5.5153 8.55837 5.72872 8.4657 5.98706 8.4657H9.65164L11.3028 8.55837L10.4519 7.93497L9.50842 7.06727C9.32871 6.9044 9.23885 6.70222 9.23885 6.46072C9.23885 6.21922 9.31186 6.02265 9.45788 5.87102C9.60952 5.71376 9.80047 5.63514 10.0307 5.63514C10.2722 5.63514 10.48 5.71938 10.6541 5.88787L13.5268 8.64261C13.7571 8.86165 13.8722 9.11718 13.8722 9.40923Z" fill="black"/>
</svg>
