<svg width="142" height="142" viewBox="0 0 142 142" fill="none" xmlns="http://www.w3.org/2000/svg">
<g filter="url(#filter0_d_362_8734)">
<path d="M123.344 20.9375V41.875C123.344 43.5409 122.682 45.1386 121.504 46.3165C120.326 47.4945 118.728 48.1562 117.062 48.1562C115.397 48.1562 113.799 47.4945 112.621 46.3165C111.443 45.1386 110.781 43.5409 110.781 41.875V27.2188H96.125C94.4591 27.2188 92.8615 26.557 91.6835 25.379C90.5055 24.2011 89.8438 22.6034 89.8438 20.9375C89.8438 19.2716 90.5055 17.6739 91.6835 16.496C92.8615 15.318 94.4591 14.6563 96.125 14.6562H117.062C118.728 14.6562 120.326 15.318 121.504 16.496C122.682 17.6739 123.344 19.2716 123.344 20.9375ZM45.875 106.781H31.2188V92.125C31.2188 90.4591 30.557 88.8615 29.379 87.6835C28.2011 86.5055 26.6034 85.8438 24.9375 85.8438C23.2716 85.8438 21.6739 86.5055 20.496 87.6835C19.318 88.8615 18.6562 90.4591 18.6562 92.125V113.062C18.6562 114.728 19.318 116.326 20.496 117.504C21.6739 118.682 23.2716 119.344 24.9375 119.344H45.875C47.5409 119.344 49.1386 118.682 50.3165 117.504C51.4945 116.326 52.1562 114.728 52.1562 113.062C52.1562 111.397 51.4945 109.799 50.3165 108.621C49.1386 107.443 47.5409 106.781 45.875 106.781ZM117.062 85.8438C115.397 85.8438 113.799 86.5055 112.621 87.6835C111.443 88.8615 110.781 90.4591 110.781 92.125V106.781H96.125C94.4591 106.781 92.8615 107.443 91.6835 108.621C90.5055 109.799 89.8438 111.397 89.8438 113.062C89.8438 114.728 90.5055 116.326 91.6835 117.504C92.8615 118.682 94.4591 119.344 96.125 119.344H117.062C118.728 119.344 120.326 118.682 121.504 117.504C122.682 116.326 123.344 114.728 123.344 113.062V92.125C123.344 90.4591 122.682 88.8615 121.504 87.6835C120.326 86.5055 118.728 85.8438 117.062 85.8438ZM24.9375 48.1562C26.6034 48.1562 28.2011 47.4945 29.379 46.3165C30.557 45.1386 31.2188 43.5409 31.2188 41.875V27.2188H45.875C47.5409 27.2188 49.1386 26.557 50.3165 25.379C51.4945 24.2011 52.1562 22.6034 52.1562 20.9375C52.1562 19.2716 51.4945 17.6739 50.3165 16.496C49.1386 15.318 47.5409 14.6562 45.875 14.6562H24.9375C23.2716 14.6562 21.6739 15.318 20.496 16.496C19.318 17.6739 18.6562 19.2716 18.6562 20.9375V41.875C18.6562 43.5409 19.318 45.1386 20.496 46.3165C21.6739 47.4945 23.2716 48.1562 24.9375 48.1562ZM89.8438 96.3125H52.1562C49.3798 96.3125 46.717 95.2095 44.7537 93.2463C42.7905 91.283 41.6875 88.6202 41.6875 85.8438V48.1562C41.6875 45.3798 42.7905 42.717 44.7537 40.7537C46.717 38.7905 49.3798 37.6875 52.1562 37.6875H89.8438C92.6202 37.6875 95.283 38.7905 97.2463 40.7537C99.2095 42.717 100.312 45.3798 100.312 48.1562V85.8438C100.312 88.6202 99.2095 91.283 97.2463 93.2463C95.283 95.2095 92.6202 96.3125 89.8438 96.3125ZM87.75 50.25H54.25V83.75H87.75V50.25Z" fill="#ABBC77"/>
</g>
<defs>
<filter id="filter0_d_362_8734" x="0" y="0" width="142" height="142" filterUnits="userSpaceOnUse" color-interpolation-filters="sRGB">
<feFlood flood-opacity="0" result="BackgroundImageFix"/>
<feColorMatrix in="SourceAlpha" type="matrix" values="0 0 0 0 0 0 0 0 0 0 0 0 0 0 0 0 0 0 127 0" result="hardAlpha"/>
<feOffset dy="4"/>
<feGaussianBlur stdDeviation="2"/>
<feComposite in2="hardAlpha" operator="out"/>
<feColorMatrix type="matrix" values="0 0 0 0 0 0 0 0 0 0 0 0 0 0 0 0 0 0 0.25 0"/>
<feBlend mode="normal" in2="BackgroundImageFix" result="effect1_dropShadow_362_8734"/>
<feBlend mode="normal" in="SourceGraphic" in2="effect1_dropShadow_362_8734" result="shape"/>
</filter>
</defs>
</svg>
