<svg width="214" height="25" viewBox="0 0 214 25" fill="none" xmlns="http://www.w3.org/2000/svg">
<path d="M13.3977 7.42045C13.3068 6.50379 12.9167 5.79167 12.2273 5.28409C11.5379 4.77651 10.6023 4.52273 9.42045 4.52273C8.61742 4.52273 7.93939 4.63636 7.38636 4.86364C6.83333 5.08333 6.40909 5.39015 6.11364 5.78409C5.82576 6.17803 5.68182 6.625 5.68182 7.125C5.66667 7.54167 5.75379 7.9053 5.94318 8.21591C6.14015 8.52652 6.40909 8.79545 6.75 9.02273C7.09091 9.24242 7.48485 9.43561 7.93182 9.60227C8.37879 9.76136 8.85606 9.89773 9.36364 10.0114L11.4545 10.5114C12.4697 10.7386 13.4015 11.0417 14.25 11.4205C15.0985 11.7992 15.8333 12.2652 16.4545 12.8182C17.0758 13.3712 17.5568 14.0227 17.8977 14.7727C18.2462 15.5227 18.4242 16.3826 18.4318 17.3523C18.4242 18.7765 18.0606 20.0114 17.3409 21.0568C16.6288 22.0947 15.5985 22.9015 14.25 23.4773C12.9091 24.0455 11.2917 24.3295 9.39773 24.3295C7.51894 24.3295 5.88258 24.0417 4.48864 23.4659C3.10227 22.8902 2.01894 22.0379 1.23864 20.9091C0.465909 19.7727 0.0606061 18.3674 0.0227273 16.6932H4.78409C4.83712 17.4735 5.06061 18.125 5.45455 18.6477C5.85606 19.1629 6.39015 19.553 7.05682 19.8182C7.73106 20.0758 8.49242 20.2045 9.34091 20.2045C10.1742 20.2045 10.8977 20.0833 11.5114 19.8409C12.1326 19.5985 12.6136 19.2614 12.9545 18.8295C13.2955 18.3977 13.4659 17.9015 13.4659 17.3409C13.4659 16.8182 13.3106 16.3788 13 16.0227C12.697 15.6667 12.25 15.3636 11.6591 15.1136C11.0758 14.8636 10.3598 14.6364 9.51136 14.4318L6.97727 13.7955C5.01515 13.3182 3.46591 12.572 2.32955 11.5568C1.19318 10.5417 0.628788 9.17424 0.636364 7.45454C0.628788 6.04545 1.00379 4.81439 1.76136 3.76136C2.52652 2.70833 3.57576 1.88636 4.90909 1.29545C6.24242 0.704545 7.75758 0.40909 9.45455 0.40909C11.1818 0.40909 12.6894 0.704545 13.9773 1.29545C15.2727 1.88636 16.2803 2.70833 17 3.76136C17.7197 4.81439 18.0909 6.03409 18.1136 7.42045H13.3977ZM29.5369 24.3409C27.7491 24.3409 26.2112 23.9621 24.9233 23.2045C23.643 22.4394 22.6581 21.3788 21.9688 20.0227C21.2869 18.6667 20.946 17.1061 20.946 15.3409C20.946 13.553 21.2907 11.9848 21.9801 10.6364C22.6771 9.2803 23.6657 8.22348 24.946 7.46591C26.2263 6.70076 27.7491 6.31818 29.5142 6.31818C31.0369 6.31818 32.3703 6.5947 33.5142 7.14773C34.6581 7.70076 35.5634 8.47727 36.2301 9.47727C36.8968 10.4773 37.2642 11.6515 37.3324 13H32.7642C32.6354 12.1288 32.2945 11.428 31.7415 10.8977C31.196 10.3598 30.4801 10.0909 29.5938 10.0909C28.8438 10.0909 28.1884 10.2955 27.6278 10.7045C27.0748 11.1061 26.643 11.6932 26.3324 12.4659C26.0218 13.2386 25.8665 14.1742 25.8665 15.2727C25.8665 16.3864 26.018 17.3333 26.321 18.1136C26.6316 18.8939 27.0672 19.4886 27.6278 19.8977C28.1884 20.3068 28.8438 20.5114 29.5938 20.5114C30.1468 20.5114 30.643 20.3977 31.0824 20.1705C31.5294 19.9432 31.8968 19.6136 32.1847 19.1818C32.4801 18.7424 32.6733 18.2159 32.7642 17.6023H37.3324C37.2566 18.9356 36.893 20.1098 36.2415 21.125C35.5975 22.1326 34.7074 22.9205 33.571 23.4886C32.4347 24.0568 31.09 24.3409 29.5369 24.3409ZM45.4091 24.3295C44.2955 24.3295 43.303 24.1364 42.4318 23.75C41.5606 23.3561 40.8712 22.7765 40.3636 22.0114C39.8636 21.2386 39.6136 20.2765 39.6136 19.125C39.6136 18.1553 39.7917 17.3409 40.1477 16.6818C40.5038 16.0227 40.9886 15.4924 41.6023 15.0909C42.2159 14.6894 42.9129 14.3864 43.6932 14.1818C44.4811 13.9773 45.3068 13.8333 46.1705 13.75C47.1856 13.6439 48.0038 13.5455 48.625 13.4545C49.2462 13.3561 49.697 13.2121 49.9773 13.0227C50.2576 12.8333 50.3977 12.553 50.3977 12.1818V12.1136C50.3977 11.3939 50.1705 10.8371 49.7159 10.4432C49.2689 10.0492 48.6326 9.85227 47.8068 9.85227C46.9356 9.85227 46.2424 10.0455 45.7273 10.4318C45.2121 10.8106 44.8712 11.2879 44.7045 11.8636L40.2273 11.5C40.4545 10.4394 40.9015 9.52273 41.5682 8.75C42.2348 7.9697 43.0947 7.37121 44.1477 6.95454C45.2083 6.5303 46.4356 6.31818 47.8295 6.31818C48.7992 6.31818 49.7273 6.43182 50.6136 6.65909C51.5076 6.88636 52.2992 7.23864 52.9886 7.71591C53.6856 8.19318 54.2348 8.80682 54.6364 9.55682C55.0379 10.2992 55.2386 11.1894 55.2386 12.2273V24H50.6477V21.5795H50.5114C50.2311 22.125 49.8561 22.6061 49.3864 23.0227C48.9167 23.4318 48.3523 23.7538 47.6932 23.9886C47.0341 24.2159 46.2727 24.3295 45.4091 24.3295ZM46.7955 20.9886C47.5076 20.9886 48.1364 20.8485 48.6818 20.5682C49.2273 20.2803 49.6553 19.8939 49.9659 19.4091C50.2765 18.9242 50.4318 18.375 50.4318 17.7614V15.9091C50.2803 16.0076 50.072 16.0985 49.8068 16.1818C49.5492 16.2576 49.2576 16.3295 48.9318 16.3977C48.6061 16.4583 48.2803 16.5152 47.9545 16.5682C47.6288 16.6136 47.3333 16.6553 47.0682 16.6932C46.5 16.7765 46.0038 16.9091 45.5795 17.0909C45.1553 17.2727 44.8258 17.5189 44.5909 17.8295C44.3561 18.1326 44.2386 18.5114 44.2386 18.9659C44.2386 19.625 44.4773 20.1288 44.9545 20.4773C45.4394 20.8182 46.053 20.9886 46.7955 20.9886ZM63.8352 13.9091V24H58.9943V6.54545H63.608V9.625H63.8125C64.1989 8.60985 64.8466 7.80682 65.7557 7.21591C66.6648 6.61742 67.767 6.31818 69.0625 6.31818C70.2746 6.31818 71.3314 6.58333 72.233 7.11364C73.1345 7.64394 73.8352 8.40151 74.3352 9.38636C74.8352 10.3636 75.0852 11.5303 75.0852 12.8864V24H70.2443V13.75C70.2519 12.6818 69.9792 11.8485 69.4261 11.25C68.8731 10.6439 68.1117 10.3409 67.142 10.3409C66.4905 10.3409 65.9148 10.4811 65.4148 10.7614C64.9223 11.0417 64.536 11.4508 64.2557 11.9886C63.983 12.5189 63.8428 13.1591 63.8352 13.9091ZM86.3977 24V0.727272H95.7159C97.428 0.727272 98.8561 0.98106 100 1.48864C101.144 1.99621 102.004 2.70076 102.58 3.60227C103.155 4.49621 103.443 5.52652 103.443 6.69318C103.443 7.60227 103.261 8.40152 102.898 9.09091C102.534 9.77273 102.034 10.3333 101.398 10.7727C100.769 11.2045 100.049 11.5114 99.2386 11.6932V11.9205C100.125 11.9583 100.955 12.2083 101.727 12.6705C102.508 13.1326 103.14 13.7803 103.625 14.6136C104.11 15.4394 104.352 16.4242 104.352 17.5682C104.352 18.803 104.045 19.9053 103.432 20.875C102.826 21.8371 101.928 22.5985 100.739 23.1591C99.5492 23.7197 98.0833 24 96.3409 24H86.3977ZM91.3182 19.9773H95.3295C96.7008 19.9773 97.7008 19.7159 98.3295 19.1932C98.9583 18.6629 99.2727 17.9583 99.2727 17.0795C99.2727 16.4356 99.1174 15.8674 98.8068 15.375C98.4962 14.8826 98.053 14.4962 97.4773 14.2159C96.9091 13.9356 96.2311 13.7955 95.4432 13.7955H91.3182V19.9773ZM91.3182 10.4659H94.9659C95.6402 10.4659 96.2386 10.3485 96.7614 10.1136C97.2917 9.87121 97.7083 9.5303 98.0114 9.09091C98.322 8.65152 98.4773 8.125 98.4773 7.51136C98.4773 6.67045 98.178 5.99242 97.5795 5.47727C96.9886 4.96212 96.1477 4.70454 95.0568 4.70454H91.3182V10.4659ZM112.44 24.3295C111.327 24.3295 110.334 24.1364 109.463 23.75C108.592 23.3561 107.902 22.7765 107.395 22.0114C106.895 21.2386 106.645 20.2765 106.645 19.125C106.645 18.1553 106.823 17.3409 107.179 16.6818C107.535 16.0227 108.02 15.4924 108.634 15.0909C109.247 14.6894 109.944 14.3864 110.724 14.1818C111.512 13.9773 112.338 13.8333 113.202 13.75C114.217 13.6439 115.035 13.5455 115.656 13.4545C116.277 13.3561 116.728 13.2121 117.009 13.0227C117.289 12.8333 117.429 12.553 117.429 12.1818V12.1136C117.429 11.3939 117.202 10.8371 116.747 10.4432C116.3 10.0492 115.664 9.85227 114.838 9.85227C113.967 9.85227 113.274 10.0455 112.759 10.4318C112.243 10.8106 111.902 11.2879 111.736 11.8636L107.259 11.5C107.486 10.4394 107.933 9.52273 108.599 8.75C109.266 7.9697 110.126 7.37121 111.179 6.95454C112.24 6.5303 113.467 6.31818 114.861 6.31818C115.83 6.31818 116.759 6.43182 117.645 6.65909C118.539 6.88636 119.33 7.23864 120.02 7.71591C120.717 8.19318 121.266 8.80682 121.668 9.55682C122.069 10.2992 122.27 11.1894 122.27 12.2273V24H117.679V21.5795H117.543C117.262 22.125 116.887 22.6061 116.418 23.0227C115.948 23.4318 115.384 23.7538 114.724 23.9886C114.065 24.2159 113.304 24.3295 112.44 24.3295ZM113.827 20.9886C114.539 20.9886 115.168 20.8485 115.713 20.5682C116.259 20.2803 116.687 19.8939 116.997 19.4091C117.308 18.9242 117.463 18.375 117.463 17.7614V15.9091C117.312 16.0076 117.103 16.0985 116.838 16.1818C116.58 16.2576 116.289 16.3295 115.963 16.3977C115.637 16.4583 115.312 16.5152 114.986 16.5682C114.66 16.6136 114.365 16.6553 114.099 16.6932C113.531 16.7765 113.035 16.9091 112.611 17.0909C112.187 17.2727 111.857 17.5189 111.622 17.8295C111.387 18.1326 111.27 18.5114 111.27 18.9659C111.27 19.625 111.509 20.1288 111.986 20.4773C112.471 20.8182 113.084 20.9886 113.827 20.9886ZM126.026 24V6.54545H130.719V9.59091H130.901C131.219 8.50758 131.753 7.68939 132.503 7.13636C133.253 6.57576 134.116 6.29545 135.094 6.29545C135.336 6.29545 135.598 6.31061 135.878 6.34091C136.158 6.37121 136.404 6.41288 136.616 6.46591V10.7614C136.389 10.6932 136.075 10.6326 135.673 10.5795C135.272 10.5265 134.904 10.5 134.571 10.5C133.859 10.5 133.223 10.6553 132.662 10.9659C132.109 11.2689 131.67 11.6932 131.344 12.2386C131.026 12.7841 130.866 13.4129 130.866 14.125V24H126.026ZM146.193 24.3409C144.405 24.3409 142.867 23.9621 141.58 23.2045C140.299 22.4394 139.314 21.3788 138.625 20.0227C137.943 18.6667 137.602 17.1061 137.602 15.3409C137.602 13.553 137.947 11.9848 138.636 10.6364C139.333 9.2803 140.322 8.22348 141.602 7.46591C142.883 6.70076 144.405 6.31818 146.17 6.31818C147.693 6.31818 149.027 6.5947 150.17 7.14773C151.314 7.70076 152.22 8.47727 152.886 9.47727C153.553 10.4773 153.92 11.6515 153.989 13H149.42C149.292 12.1288 148.951 11.428 148.398 10.8977C147.852 10.3598 147.136 10.0909 146.25 10.0909C145.5 10.0909 144.845 10.2955 144.284 10.7045C143.731 11.1061 143.299 11.6932 142.989 12.4659C142.678 13.2386 142.523 14.1742 142.523 15.2727C142.523 16.3864 142.674 17.3333 142.977 18.1136C143.288 18.8939 143.723 19.4886 144.284 19.8977C144.845 20.3068 145.5 20.5114 146.25 20.5114C146.803 20.5114 147.299 20.3977 147.739 20.1705C148.186 19.9432 148.553 19.6136 148.841 19.1818C149.136 18.7424 149.33 18.2159 149.42 17.6023H153.989C153.913 18.9356 153.549 20.1098 152.898 21.125C152.254 22.1326 151.364 22.9205 150.227 23.4886C149.091 24.0568 147.746 24.3409 146.193 24.3409ZM164.974 24.3409C163.209 24.3409 161.683 23.9659 160.395 23.2159C159.115 22.4583 158.126 21.4053 157.429 20.0568C156.732 18.7008 156.384 17.1288 156.384 15.3409C156.384 13.5379 156.732 11.9621 157.429 10.6136C158.126 9.25758 159.115 8.20454 160.395 7.45454C161.683 6.69697 163.209 6.31818 164.974 6.31818C166.74 6.31818 168.262 6.69697 169.543 7.45454C170.83 8.20454 171.823 9.25758 172.52 10.6136C173.217 11.9621 173.565 13.5379 173.565 15.3409C173.565 17.1288 173.217 18.7008 172.52 20.0568C171.823 21.4053 170.83 22.4583 169.543 23.2159C168.262 23.9659 166.74 24.3409 164.974 24.3409ZM164.997 20.5909C165.8 20.5909 166.471 20.3636 167.009 19.9091C167.546 19.447 167.952 18.8182 168.224 18.0227C168.505 17.2273 168.645 16.322 168.645 15.3068C168.645 14.2917 168.505 13.3864 168.224 12.5909C167.952 11.7955 167.546 11.1667 167.009 10.7045C166.471 10.2424 165.8 10.0114 164.997 10.0114C164.187 10.0114 163.505 10.2424 162.952 10.7045C162.406 11.1667 161.993 11.7955 161.713 12.5909C161.44 13.3864 161.304 14.2917 161.304 15.3068C161.304 16.322 161.44 17.2273 161.713 18.0227C161.993 18.8182 162.406 19.447 162.952 19.9091C163.505 20.3636 164.187 20.5909 164.997 20.5909ZM183.145 24.2841C181.819 24.2841 180.618 23.9432 179.543 23.2614C178.474 22.572 177.626 21.5606 176.997 20.2273C176.376 18.8864 176.065 17.2424 176.065 15.2955C176.065 13.2955 176.387 11.6326 177.031 10.3068C177.675 8.97348 178.531 7.97727 179.599 7.31818C180.675 6.65152 181.853 6.31818 183.134 6.31818C184.111 6.31818 184.925 6.48485 185.577 6.81818C186.236 7.14394 186.766 7.55303 187.168 8.04545C187.577 8.5303 187.887 9.00758 188.099 9.47727H188.247V0.727272H193.077V24H188.304V21.2045H188.099C187.872 21.6894 187.55 22.1705 187.134 22.6477C186.724 23.1174 186.19 23.5076 185.531 23.8182C184.88 24.1288 184.084 24.2841 183.145 24.2841ZM184.679 20.4318C185.459 20.4318 186.118 20.2197 186.656 19.7955C187.202 19.3636 187.618 18.7614 187.906 17.9886C188.202 17.2159 188.349 16.3106 188.349 15.2727C188.349 14.2348 188.205 13.3333 187.918 12.5682C187.63 11.803 187.213 11.2121 186.668 10.7955C186.122 10.3788 185.459 10.1705 184.679 10.1705C183.884 10.1705 183.213 10.3864 182.668 10.8182C182.122 11.25 181.709 11.8485 181.429 12.6136C181.149 13.3788 181.009 14.2652 181.009 15.2727C181.009 16.2879 181.149 17.1856 181.429 17.9659C181.717 18.7386 182.13 19.3447 182.668 19.7841C183.213 20.2159 183.884 20.4318 184.679 20.4318ZM205.011 24.3409C203.216 24.3409 201.67 23.9773 200.375 23.25C199.087 22.5152 198.095 21.4773 197.398 20.1364C196.701 18.7879 196.352 17.1932 196.352 15.3523C196.352 13.5568 196.701 11.9811 197.398 10.625C198.095 9.26894 199.076 8.21212 200.341 7.45454C201.614 6.69697 203.106 6.31818 204.818 6.31818C205.97 6.31818 207.042 6.50379 208.034 6.875C209.034 7.23864 209.905 7.78788 210.648 8.52273C211.398 9.25758 211.981 10.1818 212.398 11.2955C212.814 12.4015 213.023 13.697 213.023 15.1818V16.5114H198.284V13.5114H208.466C208.466 12.8144 208.314 12.197 208.011 11.6591C207.708 11.1212 207.288 10.7008 206.75 10.3977C206.22 10.0871 205.602 9.93182 204.898 9.93182C204.163 9.93182 203.511 10.1023 202.943 10.4432C202.383 10.7765 201.943 11.2273 201.625 11.7955C201.307 12.3561 201.144 12.9811 201.136 13.6705V16.5227C201.136 17.3864 201.295 18.1326 201.614 18.7614C201.939 19.3902 202.398 19.875 202.989 20.2159C203.58 20.5568 204.28 20.7273 205.091 20.7273C205.629 20.7273 206.121 20.6515 206.568 20.5C207.015 20.3485 207.398 20.1212 207.716 19.8182C208.034 19.5152 208.277 19.1439 208.443 18.7045L212.92 19C212.693 20.0758 212.227 21.0152 211.523 21.8182C210.826 22.6136 209.924 23.2348 208.818 23.6818C207.72 24.1212 206.451 24.3409 205.011 24.3409Z" fill="#ABBC77"/>
</svg>
