<svg width="22" height="22" viewBox="0 0 27 28" fill="none" xmlns="http://www.w3.org/2000/svg">
<g id="solar:settings-bold">
<path id="Vector" fill-rule="evenodd" clip-rule="evenodd" d="M16.064 2.921C15.6477 2.75 15.119 2.75 14.0626 2.75C13.0062 2.75 12.4786 2.75 12.0612 2.921C11.5071 3.14849 11.066 3.58674 10.835 4.13937C10.7292 4.39025 10.6887 4.68388 10.6719 5.11025C10.6644 5.41918 10.5782 5.72109 10.4215 5.98743C10.2648 6.25378 10.0428 6.47576 9.77636 6.63238C9.50495 6.78324 9.19985 6.86316 8.88933 6.86474C8.57881 6.86631 8.27291 6.78948 7.99999 6.64138C7.61974 6.44113 7.34411 6.33087 7.07186 6.29488C6.47623 6.21667 5.87382 6.37677 5.39561 6.74038C5.03786 7.01262 4.77349 7.46712 4.24586 8.375C3.71711 9.28288 3.45386 9.73625 3.39424 10.1806C3.31549 10.7724 3.47749 11.3709 3.84424 11.8445C4.01074 12.0605 4.24586 12.2416 4.60924 12.4689C5.14586 12.803 5.49011 13.3722 5.49011 14C5.49011 14.6278 5.14586 15.197 4.61036 15.53C4.24586 15.7584 4.01074 15.9395 3.84311 16.1555C3.66208 16.3894 3.5292 16.6569 3.45216 16.9425C3.37511 17.2281 3.35542 17.5261 3.39424 17.8194C3.45386 18.2626 3.71711 18.7171 4.24586 19.625C4.77461 20.5329 5.03786 20.9862 5.39561 21.2596C5.87261 21.623 6.47561 21.7828 7.07186 21.7051C7.34411 21.6691 7.61974 21.5589 7.99999 21.3586C8.27305 21.2103 8.57915 21.1334 8.88989 21.135C9.20063 21.1365 9.50594 21.2166 9.77749 21.3676C10.3242 21.6826 10.6482 22.262 10.6719 22.8898C10.6887 23.3173 10.7292 23.6097 10.835 23.8606C11.0645 24.4119 11.5055 24.8506 12.0612 25.079C12.4775 25.25 13.0062 25.25 14.0626 25.25C15.119 25.25 15.6477 25.25 16.064 25.079C16.6181 24.8515 17.0592 24.4133 17.2902 23.8606C17.396 23.6097 17.4365 23.3173 17.4534 22.8898C17.4759 22.262 17.801 21.6815 18.3489 21.3676C18.6203 21.2168 18.9254 21.1368 19.2359 21.1353C19.5464 21.1337 19.8523 21.2105 20.1252 21.3586C20.5055 21.5589 20.7811 21.6691 21.0534 21.7051C21.6496 21.7839 22.2526 21.623 22.7296 21.2596C23.0874 20.9874 23.3517 20.5329 23.8794 19.625C24.4081 18.7171 24.6714 18.2638 24.731 17.8194C24.7696 17.5261 24.7498 17.228 24.6725 16.9424C24.5953 16.6568 24.4622 16.3893 24.281 16.1555C24.1145 15.9395 23.8794 15.7584 23.516 15.5311C22.9794 15.197 22.6351 14.6278 22.6351 14C22.6351 13.3722 22.9794 12.803 23.5149 12.47C23.8794 12.2416 24.1145 12.0605 24.2821 11.8445C24.4631 11.6106 24.596 11.3431 24.6731 11.0575C24.7501 10.7719 24.7698 10.4739 24.731 10.1806C24.6714 9.73737 24.4081 9.28288 23.8794 8.375C23.3506 7.46712 23.0874 7.01375 22.7296 6.74038C22.2514 6.37677 21.649 6.21667 21.0534 6.29488C20.7811 6.33087 20.5055 6.44113 20.1252 6.64138C19.8522 6.78968 19.5461 6.86662 19.2353 6.86505C18.9246 6.86347 18.6193 6.78344 18.3477 6.63238C18.0816 6.47562 17.8597 6.25358 17.7032 5.98725C17.5468 5.72091 17.4607 5.41907 17.4534 5.11025C17.4365 4.68275 17.396 4.39025 17.2902 4.13937C17.1759 3.8657 17.0087 3.61724 16.7983 3.40819C16.5879 3.19914 16.3384 3.03359 16.064 2.921ZM14.0626 17.375C15.9414 17.375 17.4635 15.8641 17.4635 14C17.4635 12.1359 15.9402 10.625 14.0626 10.625C12.1839 10.625 10.6617 12.1359 10.6617 14C10.6617 15.8641 12.185 17.375 14.0626 17.375Z" fill="black"/>
</g>
</svg>
