<svg width="22" height="22" viewBox="0 0 22 18" fill="none" xmlns="http://www.w3.org/2000/svg">
<path id="Vector" fill-rule="evenodd" clip-rule="evenodd" d="M16.1024 3.6493H18.0714C19.1133 3.6493 20.1126 4.0632 20.8493 4.79995C21.5861 5.5367 22 6.53595 22 7.57787V13.8636C22 14.072 21.9172 14.2718 21.7699 14.4192C21.6225 14.5665 21.4227 14.6493 21.2143 14.6493H18.9451C18.9451 15.4036 18.6455 16.1271 18.1121 16.6605C17.5787 17.1939 16.8552 17.4936 16.1009 17.4936C15.3465 17.4936 14.6231 17.1939 14.0896 16.6605C13.5562 16.1271 13.2566 15.4036 13.2566 14.6493H7.85714C7.85714 15.4036 7.55748 16.1271 7.02407 16.6605C6.49066 17.1939 5.76721 17.4936 5.01286 17.4936C4.25851 17.4936 3.53505 17.1939 3.00164 16.6605C2.46824 16.1271 2.16857 15.4036 2.16857 14.6493H0.785714C0.57733 14.6493 0.37748 14.5665 0.23013 14.4192C0.0827804 14.2718 0 14.072 0 13.8636V2.86358C0 2.23843 0.248341 1.63888 0.690391 1.19683C1.13244 0.75478 1.73199 0.506439 2.35714 0.506439H11.7857C12.3853 0.50646 12.9623 0.734959 13.3993 1.14543C13.8364 1.55589 14.1006 2.11748 14.1381 2.71587V8.66058C14.1381 8.92106 14.2416 9.17088 14.4258 9.35506C14.61 9.53925 14.8598 9.64272 15.1203 9.64272C15.3808 9.64272 15.6306 9.53925 15.8148 9.35506C15.999 9.17088 16.1024 8.92106 16.1024 8.66058V3.6493Z" fill="black"/>
</svg>
