<svg width="56" height="56" viewBox="0 0 56 56" fill="none" xmlns="http://www.w3.org/2000/svg">
<g filter="url(#filter0_i_359_17124)">
<path d="M28 0.361816C12.8475 0.361816 0.5 12.7093 0.5 27.8618C0.5 43.0143 12.8475 55.3618 28 55.3618C43.1525 55.3618 55.5 43.0143 55.5 27.8618C55.5 12.7093 43.1525 0.361816 28 0.361816ZM41.145 21.5368L25.5525 37.1293C25.1675 37.5143 24.645 37.7343 24.095 37.7343C23.545 37.7343 23.0225 37.5143 22.6375 37.1293L14.855 29.3468C14.0575 28.5493 14.0575 27.2293 14.855 26.4318C15.6525 25.6343 16.9725 25.6343 17.77 26.4318L24.095 32.7568L38.23 18.6218C39.0275 17.8243 40.3475 17.8243 41.145 18.6218C41.9425 19.4193 41.9425 20.7118 41.145 21.5368Z" fill="#ABBC77"/>
</g>
<defs>
<filter id="filter0_i_359_17124" x="0.5" y="0.361816" width="55" height="59" filterUnits="userSpaceOnUse" color-interpolation-filters="sRGB">
<feFlood flood-opacity="0" result="BackgroundImageFix"/>
<feBlend mode="normal" in="SourceGraphic" in2="BackgroundImageFix" result="shape"/>
<feColorMatrix in="SourceAlpha" type="matrix" values="0 0 0 0 0 0 0 0 0 0 0 0 0 0 0 0 0 0 127 0" result="hardAlpha"/>
<feOffset dy="4"/>
<feGaussianBlur stdDeviation="2"/>
<feComposite in2="hardAlpha" operator="arithmetic" k2="-1" k3="1"/>
<feColorMatrix type="matrix" values="0 0 0 0 0 0 0 0 0 0 0 0 0 0 0 0 0 0 0.25 0"/>
<feBlend mode="normal" in2="shape" result="effect1_innerShadow_359_17124"/>
</filter>
</defs>
</svg>
