<svg width="25" height="26" viewBox="0 0 25 26" fill="none" xmlns="http://www.w3.org/2000/svg">
<path d="M6.44471 8.83337H18.5541L17.8301 20.4219C17.797 20.9509 17.5635 21.4473 17.1773 21.8102C16.791 22.173 16.2809 22.375 15.751 22.375H9.24888C8.7189 22.375 8.20885 22.173 7.82258 21.8102C7.4363 21.4473 7.20283 20.9509 7.16971 20.4219L6.44471 8.83337ZM19.7916 5.70837V7.79171H5.20825V5.70837H8.33325V4.66671C8.33325 4.11417 8.55275 3.58427 8.94345 3.19357C9.33415 2.80287 9.86405 2.58337 10.4166 2.58337H14.5833C15.1358 2.58337 15.6657 2.80287 16.0564 3.19357C16.4471 3.58427 16.6666 4.11417 16.6666 4.66671V5.70837H19.7916ZM10.4166 5.70837H14.5833V4.66671H10.4166V5.70837Z" fill="#B8B8B8"/>
</svg>
