<svg width="22" height="22" viewBox="0 0 50 50" fill="none" xmlns="http://www.w3.org/2000/svg">
<path d="M47.7148 24.3527L38.2812 20.313V8.205C38.2812 6.53108 37.373 5.03571 35.9961 4.44426L26.2305 0.259458C25.4395 -0.0864859 24.5605 -0.0864859 23.7598 0.259458L13.9941 4.44426C12.6172 5.03571 11.709 6.53108 11.709 8.205V20.313L2.27539 24.3527C0.908203 24.9442 0 26.4396 0 28.1135V40.4001C0 41.9178 0.751953 43.3127 1.94336 43.9934L11.709 49.5731C12.6953 50.1423 13.8672 50.1423 14.8535 49.5731L25 43.7702L35.1465 49.5731C36.1328 50.1423 37.3047 50.1423 38.291 49.5731L48.0566 43.9934C49.248 43.3127 50 41.9178 50 40.4001V28.1135C50 26.4396 49.0918 24.9442 47.7148 24.3527ZM34.9609 20.4023L26.6602 23.9622V16.3514L34.9609 12.2224V20.4023ZM15.0391 8.04877L25 3.78585L34.9609 8.04877V8.11572L25 12.7357L15.0391 8.11572V8.04877ZM23.2422 40.534L14.9414 45.2768V36.4496L23.2422 32.1197V40.534ZM23.2422 28.0354L13.2812 32.6554L3.32031 28.0354V27.9684L13.2812 23.7055L23.2422 27.9684V28.0354ZM46.6797 40.534L38.3789 45.2768V36.4496L46.6797 32.1197V40.534ZM46.6797 28.0354L36.7188 32.6554L26.7578 28.0354V27.9684L36.7188 23.7055L46.6797 27.9684V28.0354Z" fill="#000000"/>
</svg>
